<?xml version="1.0" standalone="no"?>
<!DOCTYPE svg PUBLIC "-//W3C//DTD SVG 20010904//EN"
 "http://www.w3.org/TR/2001/REC-SVG-20010904/DTD/svg10.dtd">
<svg version="1.0" xmlns="http://www.w3.org/2000/svg"
 width="512.000000pt" height="512.000000pt" viewBox="0 0 512.000000 512.000000"
 preserveAspectRatio="xMidYMid meet">
<metadata>
Created by potrace 1.11, written by Peter Selinger 2001-2013
</metadata>
<g transform="translate(0.000000,512.000000) scale(0.100000,-0.100000)"
fill="#000000" stroke="none">
<path d="M2504 5104 c-16 -8 -37 -24 -46 -35 -16 -19 -21 -19 -54 -9 -48 16
-53 6 -49 -84 2 -39 4 -71 5 -71 1 0 3 -7 5 -15 1 -8 8 -35 15 -60 7 -25 11
-45 9 -46 -2 0 1 -7 7 -15 10 -13 38 -84 39 -101 0 -3 3 -10 8 -14 4 -4 7 -13
7 -19 0 -7 12 -39 27 -71 15 -33 27 -61 28 -64 6 -26 107 -185 150 -235 45
-53 119 -126 138 -136 9 -5 17 -13 17 -18 0 -4 -264 -8 -587 -8 l-588 0 0
-356 c0 -310 2 -356 15 -359 13 -3 1218 -2 1259 1 9 1 12 9 9 26 -3 14 -1 28
4 31 4 3 5 11 1 17 -6 11 -8 66 -3 92 1 6 2 12 1 15 -6 17 -7 81 -1 85 5 3 6
50 0 50 -6 0 -5 64 1 81 4 12 5 24 2 28 -8 8 -11 76 -3 81 5 3 6 50 0 50 -6 0
-5 64 1 82 5 12 5 25 0 27 -4 3 -6 18 -4 33 l5 28 258 -3 259 -3 -2 -42 c0
-23 2 -48 6 -55 5 -6 5 -17 1 -23 -10 -17 -11 -119 -1 -119 4 0 4 -8 0 -17 -5
-10 -7 -31 -5 -48 3 -38 3 -47 0 -118 -2 -32 0 -61 4 -63 5 -3 5 -10 1 -17 -9
-15 -9 -60 1 -75 4 -7 3 -12 -1 -12 -10 0 -9 -58 1 -67 3 -3 1 -13 -4 -22 -23
-45 -27 -44 634 -45 l626 -1 0 358 c0 333 -1 357 -17 358 -10 0 -275 1 -590 1
l-572 0 72 72 c114 113 165 184 235 322 129 256 141 515 27 592 -152 105 -448
-103 -609 -428 -21 -41 -41 -82 -46 -90 -4 -9 -11 -30 -15 -48 -6 -29 -28 -40
-31 -16 -8 49 -91 214 -154 303 -159 224 -378 354 -496 295z m161 -192 c34
-21 149 -132 180 -173 38 -52 85 -131 85 -144 0 -8 3 -15 8 -15 4 0 13 -15 21
-32 7 -18 19 -46 26 -63 7 -16 27 -76 45 -133 29 -92 31 -106 19 -129 -8 -14
-20 -28 -27 -31 -30 -11 -145 71 -137 98 8 24 -70 261 -119 360 -48 98 -98
176 -155 239 -60 67 -35 78 54 23z m1098 9 c14 -66 -21 -215 -76 -331 -72
-150 -189 -296 -292 -364 -66 -45 -88 -45 -108 -5 -21 45 -9 72 68 147 71 71
164 203 213 302 33 69 72 179 72 205 0 16 84 75 106 75 6 0 14 -13 17 -29z"/>
<path d="M1946 3163 c-3 -4 -75 -7 -159 -7 l-152 -1 -1 -320 c0 -176 3 -324 7
-330 5 -6 229 -10 641 -9 l633 0 1 30 c0 16 3 35 7 41 3 5 4 13 0 17 -10 9
-11 58 -2 82 4 12 5 24 2 28 -8 8 -11 76 -3 81 5 3 6 50 0 50 -6 0 -4 57 2 61
5 3 5 10 1 17 -10 16 -11 59 -2 83 4 12 5 25 1 28 -3 4 -6 37 -7 74 l0 67
-110 1 c-60 1 -114 2 -120 4 -5 1 -14 1 -20 0 -26 -5 -694 -2 -702 3 -6 4 -13
4 -17 0z"/>
<path d="M4586 3163 c-4 -4 -253 -6 -555 -6 l-548 0 0 -403 0 -404 23 -15 c50
-33 93 -94 101 -145 9 -53 11 -478 2 -540 -11 -90 -13 -99 -33 -145 -16 -39
-57 -80 -80 -80 -7 0 -11 -36 -12 -106 l-2 -106 67 23 c114 41 427 202 496
257 6 4 44 32 86 61 42 30 89 65 105 78 47 38 226 219 273 276 53 64 120 112
161 115 22 1 30 7 31 22 0 11 0 155 0 320 0 165 -1 412 -1 548 l0 248 -32 -4
c-18 -2 -43 0 -54 4 -12 4 -25 5 -28 2z"/>
<path d="M9 2479 c-5 -3 -8 -507 -7 -1240 l3 -1234 365 -2 365 -2 0 1234 c-1
679 -4 1237 -8 1241 -9 9 -704 12 -718 3z"/>
<path d="M1049 2256 c-1 -1 -2 -407 -3 -903 l-1 -901 70 -22 c38 -11 196 -57
350 -100 154 -44 294 -84 310 -89 202 -63 765 -187 1025 -225 87 -13 393 -14
485 -2 28 4 66 9 85 12 491 67 938 242 1319 518 82 59 109 81 215 176 50 45
170 169 194 201 9 13 3 37 -34 130 -157 389 -335 630 -475 641 -74 6 -106 -17
-290 -201 -179 -178 -189 -187 -269 -252 -94 -75 -241 -156 -355 -195 -108
-38 -312 -56 -432 -40 -146 20 -360 89 -513 165 -118 60 -419 251 -428 273 -2
4 -10 8 -18 8 -8 0 -14 4 -14 9 0 5 200 9 478 9 497 0 535 3 586 43 51 40 53
55 52 314 -1 239 -1 240 -28 295 -33 68 -43 80 -93 110 l-40 25 -1087 1 c-599
0 -1089 0 -1089 0z"/>
</g>
</svg>
